<svg xmlns="http://www.w3.org/2000/svg" viewBox="0 0 214 134">
  <defs><filter id="a"><feOffset dy="2"/><feGaussianBlur stdDeviation="1"/><feColorMatrix values="0 0 0 0 0 0 0 0 0 0 0 0 0 0 0 0 0 0 0.5 0"/><feBlend in="SourceGraphic"/></filter></defs>
  <path fill="#FFF" d="M9 8H205V122H9V8Z"/>
  <path d="m0 15a15 15 0 0115-15l178 0a15 15 0 0115 15l0 98a15 15 0 01-15 15l-178 0a15 15 0 01-15-15l0-98zm160.31 15-10.61 0a3.18 3.18 0 00-3.19 3.19l0 22.31-11.66 0a2.65 2.65 0 00-1.87 4.53l20.22 20.21c1 1 2.63 1 3.63 0l20.2-20.21a2.65 2.65 0 00-1.87-4.53l-11.66 0 0-22.31a3.18 3.18 0 00-3.19-3.19zm-130.31 67 .02.2.05.18.1.18q.05.08.12.15.07.07.15.12.08.06.18.09.08.04.18.06l.2.02 18 0 .2-.02.18-.05.18-.1q.08-.05.15-.12.07-.07.12-.15.06-.08.09-.18.04-.08.06-.18l.02-.2 0-35.15.01-.16.04-.15.05-.14.08-.13.1-.12.12-.1q.06-.05.13-.08l.14-.06q.07-.03.15-.04.07-.02.15-.02l.15.01.15.03.15.05q.07.03.13.08.07.04.13.1l.1.1 17.44 21.8q.07.09.15.16l.2.12q.1.05.21.07.11.03.22.03.11 0 .23-.03.1-.02.2-.07.1-.05.19-.12.09-.06.16-.16l17.45-21.8q.04-.06.1-.1.05-.06.12-.1.06-.05.13-.08l.15-.05.15-.04.15 0q.08 0 .15.02.08.01.15.04l.14.06q.07.03.13.08l.12.1.1.12.07.13.06.14.04.15.01.16 0 35.15.02.2.05.18.1.18q.05.08.12.15.07.07.15.12.08.06.18.09.08.04.18.06l.2.02 18 0 .2-.02.18-.05.18-.1q.08-.05.15-.12.07-.07.12-.15.06-.08.09-.18.04-.08.06-.18l.02-.2 0-66-.02-.2-.05-.18-.1-.18q-.05-.08-.12-.15-.07-.07-.15-.12-.08-.06-.18-.09-.08-.04-.18-.06l-.2-.02-18.52 0-.23.02-.2.08q-.1.05-.19.12-.09.07-.16.15l-18.92 23.65q-.07.09-.15.16l-.2.12q-.1.05-.21.07-.11.03-.22.03-.11 0-.23-.03-.1-.02-.2-.07-.1-.05-.19-.12-.09-.06-.16-.16l-18.92-23.65-.15-.15-.2-.12q-.1-.05-.21-.08l-.22-.02-18.52 0-.2.02-.18.05-.18.1q-.08.05-.15.12-.07.07-.12.15-.06.08-.09.18-.04.08-.06.18l-.02.2 0 66zm159-2.19 0-14.87a3.18 3.18 0 00-3.19-3.19l-19.48 0-6.5 6.5a6.8 6.8 0 01-9.65 0l-6.5-6.5-19.5 0a3.18 3.18 0 00-3.18 3.19l0 14.86a3.18 3.18 0 003.19 3.19l61.62 0a3.18 3.18 0 003.19-3.19zm-19.13-5.85a2.66 2.66 0 010 5.31 2.66 2.66 0 01-2.65-2.66c0-1.46 1.2-2.65 2.66-2.65l-.01 0zm8.51 0a2.66 2.66 0 010 5.31 2.66 2.66 0 01-2.65-2.66c0-1.46 1.2-2.65 2.66-2.65l-.01 0z" filter="url(#a)"/>
</svg>