<svg xmlns="http://www.w3.org/2000/svg" viewBox="0 0 214 134">
  <path d="m0 15a15 15 0 0115-15l178 0a15 15 0 0115 15l0 98a15 15 0 01-15 15l-178 0a15 15 0 01-15-15l0-98zm15-5a5 5 0 00-5 5l0 98a5 5 0 005 5l178 0a5 5 0 005-5l0-98a5 5 0 00-5-5l-178 0zm145.31 20a3.18 3.18 0 013.19 3.19l0 22.31 11.66 0a2.65 2.65 0 011.87 4.53l-20.2 20.21c-1 1-2.63 1-3.63 0l-20.22-20.21a2.65 2.65 0 011.87-4.53l11.66 0 0-22.31a3.18 3.18 0 013.19-3.19l10.61 0zm-130.31 67 0-66 .02-.2q.02-.1.06-.18.03-.1.09-.18.05-.08.12-.15.07-.07.15-.12l.18-.1.18-.05.2-.02 18.52 0 .22.02q.11.03.21.08l.2.12.15.15 18.92 23.65q.07.1.16.16.09.07.19.12.1.05.2.07.12.03.23.03.11 0 .22-.03.11-.02.21-.07l.2-.12q.08-.07.15-.16l18.92-23.65q.07-.08.16-.15.09-.07.19-.12l.2-.08.23-.02 18.52 0 .2.02q.1.02.18.06.1.03.18.09.08.05.15.12.07.07.12.15l.1.18.05.18.02.2 0 66-.02.2q-.02.1-.06.18-.03.1-.09.18-.05.08-.12.15-.07.07-.15.12l-.18.1-.18.05-.2.02-18 0-.2-.02q-.1-.02-.18-.06-.1-.03-.18-.09-.08-.05-.15-.12-.07-.07-.12-.15l-.1-.18-.05-.18-.02-.2 0-35.15-.01-.16-.04-.15-.06-.14-.07-.13-.1-.12-.12-.1q-.06-.05-.13-.08l-.14-.06q-.07-.03-.15-.04-.07-.02-.15-.02l-.15 0-.15.04-.15.05q-.07.03-.13.08-.07.04-.12.1-.06.04-.1.1l-17.45 21.8q-.07.1-.16.16-.09.07-.19.12-.1.05-.2.07-.12.03-.23.03-.11 0-.22-.03-.11-.02-.21-.07l-.2-.12q-.08-.07-.15-.16l-17.44-21.8-.1-.1q-.06-.06-.13-.1-.06-.05-.13-.08l-.15-.05-.15-.03-.15-.01q-.08 0-.15.02-.08.01-.15.04l-.14.06q-.07.03-.13.08l-.12.1-.1.12-.08.13-.05.14-.04.15-.01.16 0 35.15-.02.2q-.02.1-.06.18-.03.1-.09.18-.05.08-.12.15-.07.07-.15.12l-.18.1-.18.05-.2.02-18 0-.2-.02q-.1-.02-.18-.06-.1-.03-.18-.09-.08-.05-.15-.12-.07-.07-.12-.15l-.1-.18-.05-.18-.02-.2zm159-2.19 0-.01a3.18 3.18 0 01-3.19 3.19l-61.62 0a3.18 3.18 0 01-3.19-3.19l0-14.86a3.18 3.18 0 013.18-3.19l19.5 0 6.5 6.5a6.8 6.8 0 009.65 0l6.5-6.5 19.48 0a3.18 3.18 0 013.19 3.19l0 14.87zm-19.13-5.85.01 0c-1.46 0-2.66 1.19-2.66 2.65a2.66 2.66 0 002.65 2.66 2.66 2.66 0 000-5.31zm8.51 0 .01 0c-1.46 0-2.66 1.19-2.66 2.65a2.66 2.66 0 002.65 2.66 2.66 2.66 0 000-5.31z"/>
</svg>