<svg xmlns="http://www.w3.org/2000/svg" viewBox="0 0 24 24">
  <path d="M10.125 0h3.75C14.498 0 15 .502 15 1.125V9h4.11c.835 0 1.253 1.008.662 1.598l-7.13 7.135a.908.908 0 0 1-1.28 0l-7.139-7.135C3.633 10.008 4.05 9 4.884 9H9V1.125C9 .502 9.502 0 10.125 0ZM24 17.625v5.25c0 .623-.502 1.125-1.125 1.125H1.125A1.122 1.122 0 0 1 0 22.875v-5.25c0-.623.502-1.125 1.125-1.125h6.877l2.296 2.297a2.402 2.402 0 0 0 3.404 0l2.296-2.297h6.877c.623 0 1.125.502 1.125 1.125Zm-5.813 4.125a.94.94 0 0 0-.937-.938.94.94 0 0 0-.938.938.94.94 0 0 0 .938.938.94.94 0 0 0 .938-.938Zm3 0a.94.94 0 0 0-.937-.938.94.94 0 0 0-.938.938.94.94 0 0 0 .938.938.94.94 0 0 0 .938-.938Z"/>
</svg>