<svg xmlns="http://www.w3.org/2000/svg" viewBox="0 0 16 16">
  <path d="M3.368 11.509h8.983c.31 0 .561-.252.561-.562V9.544a.561.561 0 0 0-.561-.562H3.368a.561.561 0 0 0-.561.562v1.403c0 .31.251.562.561.562ZM.702 16h14.596c.31 0 .562-.251.562-.561v-1.404a.561.561 0 0 0-.562-.561H.702a.561.561 0 0 0-.562.561v1.404c0 .31.252.561.562.561Zm2.666-8.982h8.983c.31 0 .561-.252.561-.562V5.053a.561.561 0 0 0-.561-.562H3.368a.561.561 0 0 0-.561.562v1.403c0 .31.251.562.561.562ZM.14 1.965V.56C.14.251.392 0 .702 0h14.596c.31 0 .562.251.562.561v1.404c0 .31-.252.561-.562.561H.702a.561.561 0 0 1-.562-.561Z"/>
</svg>