<svg xmlns="http://www.w3.org/2000/svg" viewBox="0 0 16 16">
  <path d="M16 10.222v-7.11c0-.737-.597-1.334-1.333-1.334H4c-.736 0-1.333.597-1.333 1.333v7.111c0 .737.597 1.334 1.333 1.334h10.667c.736 0 1.333-.597 1.333-1.334ZM5.778 5.778a1.333 1.333 0 1 0 0-2.667 1.333 1.333 0 0 0 0 2.667ZM4.444 8.444l1.543-1.542c.13-.13.34-.13.471 0L7.556 8l3.764-3.764c.13-.13.341-.13.471 0l2.431 2.43v3.112H4.444V8.444ZM13.333 12.444v.445c0 .736-.597 1.333-1.333 1.333H1.333A1.333 1.333 0 0 1 0 12.89V5.778c0-.737.597-1.334 1.333-1.334h.445v5.778c0 1.226.997 2.222 2.222 2.222h9.333Z"/>
</svg>