<svg xmlns="http://www.w3.org/2000/svg" viewBox="0 0 16 16">
  <path d="M14 1.333C14 .597 13.403 0 12.667 0H3.333C2.597 0 2 .597 2 1.333v13.334C2 15.403 2.597 16 3.333 16h9.334c.736 0 1.333-.597 1.333-1.333V1.333Zm-10.667 0h9.334v13.334H3.333V1.333Zm5.084 10h-3.5c-.138 0-.25.139-.25.308v.718c0 .17.112.308.25.308h3.5c.137 0 .25-.139.25-.308v-.718c0-.17-.113-.308-.25-.308Zm2.916-2.359v.718c0 .17-.187.308-.416.308H5.083c-.229 0-.416-.138-.416-.308v-.718c0-.169.187-.307.416-.307h5.834c.229 0 .416.138.416.307Zm0-2.666v.718c0 .169-.187.307-.416.307H5.083c-.229 0-.416-.138-.416-.307v-.718c0-.17.187-.308.416-.308h5.834c.229 0 .416.138.416.308Zm0-2.667v.718c0 .17-.187.308-.416.308H5.083c-.229 0-.416-.139-.416-.308v-.718c0-.17.187-.308.416-.308h5.834c.229 0 .416.139.416.308Z"/>
</svg>