<svg xmlns="http://www.w3.org/2000/svg" viewBox="0 0 24 24">
  <path d="m23.8 13.55-1.44-.85c.15-.8.15-1.6 0-2.4l1.44-.85c.16-.1.24-.3.18-.48a8.52 8.52 0 0 0-1.84-3.24.4.4 0 0 0-.5-.07l-1.44.84a6.2 6.2 0 0 0-2.04-1.2V3.6a.44.44 0 0 0-.32-.4 8.29 8.29 0 0 0-3.68 0 .41.41 0 0 0-.32.4v1.7a6.1 6.1 0 0 0-2.04 1.2l-1.44-.84a.4.4 0 0 0-.5.07 8.52 8.52 0 0 0-1.84 3.24.4.4 0 0 0 .18.48l1.44.85c-.15.8-.15 1.6 0 2.4l-1.44.85c-.16.1-.24.3-.18.48a8.52 8.52 0 0 0 1.84 3.24.4.4 0 0 0 .5.07l1.44-.84c.6.53 1.3.94 2.04 1.2v1.7c0 .18.14.35.32.4 1.24.28 2.5.26 3.68 0a.42.42 0 0 0 .32-.4v-1.7a6.43 6.43 0 0 0 2.04-1.2l1.44.84c.16.1.37.07.5-.07a8.52 8.52 0 0 0 1.84-3.24.42.42 0 0 0-.18-.48ZM16 8.75c1.49 0 2.7 1.24 2.7 2.75s-1.21 2.74-2.7 2.74a2.72 2.72 0 0 1-2.7-2.74A2.72 2.72 0 0 1 16 8.76ZM3.69 13.87.13 10.2a.46.46 0 0 1 0-.64l.41-.43a.43.43 0 0 1 .63 0L4 12.03l2.83-2.9a.43.43 0 0 1 .63 0l.41.43c.17.18.17.46 0 .64l-3.56 3.67a.43.43 0 0 1-.62 0Z"/>
</svg>