<svg xmlns="http://www.w3.org/2000/svg" viewBox="0 0 26 26">
  <path d="M17 9v2h4v4h-4v2h4.001c.552 0 1.023-.195 1.413-.585.39-.39.586-.862.586-1.414v-4.002a1.93 1.93 0 0 0-.585-1.414A1.926 1.926 0 0 0 21 9h-4ZM17 6.627v-1.25a.375.375 0 0 0-.37-.375C15.613 4.99 14.202 5 13 6.186c-1.18-1.163-2.532-1.19-3.628-1.182A.375.375 0 0 0 9 5.379v1.238c0 .21.17.378.38.375.811-.01 2.62.11 2.62 1.514V12h-1.125a.375.375 0 0 0-.375.375v1.25c0 .207.168.375.375.375H12v3.5c0 1.404-1.752 1.501-2.623 1.499a.375.375 0 0 0-.377.375v1.249c0 .205.165.372.37.375 1.017.013 2.428.002 3.63-1.184 1.18 1.163 2.532 1.19 3.628 1.182a.375.375 0 0 0 .372-.375v-1.238a.375.375 0 0 0-.38-.375c-.811.01-2.62-.104-2.62-1.508V14h1.125a.375.375 0 0 0 .375-.375v-1.25a.375.375 0 0 0-.375-.375H14V8.506C14 7.102 15.752 6.999 16.623 7A.375.375 0 0 0 17 6.626ZM9 9v2H5v4h4v2H4.999a1.926 1.926 0 0 1-1.413-.585A1.926 1.926 0 0 1 3 15v-4.002c0-.552.195-1.023.586-1.414.39-.39.861-.585 1.413-.585H9Zm16.001-9c.276 0 .511.098.706.293.195.195.293.43.293.706V9h-2V2h-7V0h8.001ZM.999 0a.963.963 0 0 0-.706.293A.963.963 0 0 0 0 .999V9h2V2h7V0H.999Zm0 26a.962.962 0 0 1-.706-.293.963.963 0 0 1-.293-.706V17h2v7h7v2H.999Zm24.002 0a.963.963 0 0 0 .706-.293.963.963 0 0 0 .293-.706V17h-2v7h-7v2h8.001Z"/>
</svg>