<svg xmlns="http://www.w3.org/2000/svg" viewBox="0 0 26 26">
  <path d="M14 9.25V5H7.75a.748.748 0 0 0-.75.75v14.5c0 .416.334.75.75.75h10.5c.416 0 .75-.334.75-.75V10h-4.25a.752.752 0 0 1-.75-.75ZM19 8.81V9h-4V5h.19c.2 0 .391.078.532.219l3.06 3.062a.75.75 0 0 1 .218.528ZM25.001 0c.276 0 .511.098.706.293.195.195.293.43.293.706V9h-2V2h-7V0h8.001ZM.999 0a.963.963 0 0 0-.706.293A.963.963 0 0 0 0 .999V9h2V2h7V0H.999Zm0 26a.962.962 0 0 1-.706-.293.963.963 0 0 1-.293-.706V17h2v7h7v2H.999Zm24.002 0a.963.963 0 0 0 .706-.293.963.963 0 0 0 .293-.706V17h-2v7h-7v2h8.001Z"/>
</svg>