<svg xmlns="http://www.w3.org/2000/svg" viewBox="0 0 24 24">
  <path d="m18.434 17.38 5.387-5.051a.446.446 0 0 0 0-.654L18.434 6.62a.453.453 0 0 0-.636.018l-1.626 1.735a.449.449 0 0 0 .03.643L19.589 12l-3.387 2.98a.445.445 0 0 0-.03.642l1.626 1.735a.45.45 0 0 0 .636.023Zm-12.232-.023 1.626-1.735a.449.449 0 0 0-.03-.643L4.411 12l3.387-2.98a.445.445 0 0 0 .03-.642L6.202 6.643a.45.45 0 0 0-.636-.019L.18 11.671a.446.446 0 0 0 0 .654l5.387 5.05a.446.446 0 0 0 .636-.018Zm4.261 4.194-2.28-.661a.45.45 0 0 1-.306-.557l5.102-17.578a.45.45 0 0 1 .557-.306l2.28.661a.45.45 0 0 1 .307.557L11.02 21.245a.448.448 0 0 1-.556.306Z"/>
</svg>